<?xml version="1.0" standalone="no"?>
<!DOCTYPE svg PUBLIC "-//W3C//DTD SVG 20010904//EN"
 "http://www.w3.org/TR/2001/REC-SVG-20010904/DTD/svg10.dtd">
<svg version="1.0" xmlns="http://www.w3.org/2000/svg"
 width="100%" height="100%" viewBox="0 0 113.000000 41.000000"
 preserveAspectRatio="xMidYMid meet">

<g transform="translate(0.000000,41.000000) scale(0.100000,-0.100000)"
fill="#005BD5" stroke="none">
<path d="M402 394 c-32 -22 -30 -69 4 -91 24 -15 29 -15 53 -2 36 20 41 71 9
93 -28 20 -38 20 -66 0z"/>
<path d="M562 394 c-32 -22 -30 -69 4 -91 24 -15 29 -15 53 -2 36 20 41 71 9
93 -28 20 -38 20 -66 0z"/>
<path d="M1036 384 c-24 -23 -20 -61 8 -79 39 -26 76 -3 76 47 0 43 -53 63
-84 32z"/>
<path d="M870 299 l0 -60 -22 15 c-49 34 -122 13 -150 -44 -53 -105 23 -220
127 -192 24 6 41 7 43 1 2 -5 26 -9 53 -9 l49 0 0 175 0 175 -50 0 -50 0 0
-61z m-10 -130 c16 -28 5 -66 -21 -74 -27 -9 -49 11 -49 44 0 50 49 70 70 30z"/>
<path d="M89 317 c-91 -47 -114 -166 -48 -242 58 -66 147 -80 248 -39 l42 16
-3 77 -3 76 -67 3 -68 3 0 -36 c0 -28 4 -35 19 -35 25 0 38 -20 20 -31 -26
-17 -69 -9 -94 16 -30 30 -32 64 -4 99 16 20 29 26 60 26 22 0 49 -5 60 -11
16 -8 25 -7 41 8 43 39 42 52 -4 73 -60 27 -143 26 -199 -3z"/>
<path d="M380 168 c1 -142 15 -158 143 -154 112 3 121 14 125 151 l4 105 -56
0 -56 0 0 -79 c0 -64 -3 -80 -16 -85 -32 -12 -44 13 -44 90 l0 74 -50 0 -50 0
0 -102z"/>
<path d="M1020 140 l0 -130 50 0 50 0 0 130 0 130 -50 0 -50 0 0 -130z"/>
</g>

</svg>
